<?xml version="1.0" encoding="utf-8"?>
<!-- Generator: Adobe Illustrator 23.0.6, SVG Export Plug-In . SVG Version: 6.00 Build 0)  -->
<svg version="1.1" id="Layer_1" xmlns="http://www.w3.org/2000/svg" xmlns:xlink="http://www.w3.org/1999/xlink" x="0px" y="0px"
	 viewBox="0 0 1646.75 558.33" style="enable-background:new 0 0 1646.75 558.33;" xml:space="preserve">
<style type="text/css">
	.st0{fill:none;}
	.st1{fill:#666666;}
	.st2{fill:#E6E6E6;}
	.st3{fill-rule:evenodd;clip-rule:evenodd;fill:#FFFFFF;stroke:#FFD018;stroke-width:1.9735;stroke-miterlimit:10;}
	.st4{fill-rule:evenodd;clip-rule:evenodd;fill:#FFD018;}
	.st5{fill:#FFD018;}
	.st6{opacity:0.92;fill:#FFD018;}
	.st7{opacity:0.95;fill:#FFD018;}
	.st8{clip-path:url(#SVGID_4_);fill:none;stroke:#FFD018;stroke-miterlimit:10;stroke-dasharray:17.6543;}
	.st9{fill:none;stroke:#FFFFFF;stroke-width:2;stroke-miterlimit:10;}
	.st10{fill:#FFFFFF;}
	.st11{fill:none;stroke:#000000;stroke-width:2;stroke-miterlimit:10;}
	.st12{clip-path:url(#SVGID_8_);fill:none;stroke:#FFD018;stroke-miterlimit:10;stroke-dasharray:17.6543;}
	.st13{clip-path:url(#SVGID_14_);fill:none;stroke:#FFD018;stroke-miterlimit:10;stroke-dasharray:17.6543;}
	.st14{fill:none;stroke:#666666;stroke-width:3;stroke-miterlimit:10;}
	.st15{fill:none;stroke:#FFD018;stroke-width:3;stroke-miterlimit:10;}
	.st16{fill:#4C90F5;}
	.st17{clip-path:url(#SVGID_18_);fill:none;stroke:#FFD018;stroke-miterlimit:10;stroke-dasharray:17.6543;}
	.st18{fill:#D6A509;}
	.st19{fill:#DDBA9E;}
	.st20{fill:#EFD4B7;}
	.st21{fill:#F8F1E6;}
	.st22{fill:#494241;}
	.st23{fill:#55382F;}
	.st24{fill:#E2415D;}
	.st25{fill:#F4959C;}
	.st26{fill:#D2AE94;}
	.st27{fill:#7E3F20;}
	.st28{fill:#383838;}
	.st29{fill:#E4BA97;}
	.st30{fill:#444444;}
	.st31{fill-rule:evenodd;clip-rule:evenodd;fill:#3C444F;}
	.st32{fill-rule:evenodd;clip-rule:evenodd;fill:#FFFFFF;}
	.st33{fill:#CF4F44;}
	.st34{fill:#18333A;}
	.st35{fill:#FEEE99;}
	.st36{fill:#043843;}
	.st37{fill:#F2B74F;}
	.st38{fill:#FECE68;}
	.st39{fill:none;stroke:#666666;stroke-width:1.1512;stroke-miterlimit:10;}
	.st40{fill:none;stroke:#000000;stroke-width:1.0679;stroke-miterlimit:10;}
	.st41{fill:none;stroke:#000000;stroke-width:1.0679;stroke-miterlimit:10;stroke-dasharray:18.6438,18.6438;}
	.st42{fill:none;stroke:#000000;stroke-width:1.0679;stroke-miterlimit:10;stroke-dasharray:19.1692,19.1692;}
	.st43{fill:#FFFFFF;stroke:#9E9E9E;stroke-width:1.0622;stroke-miterlimit:10;}
	.st44{clip-path:url(#SVGID_26_);fill:none;stroke:#FFD018;stroke-miterlimit:10;stroke-dasharray:17.6543;}
	.st45{clip-path:url(#SVGID_30_);fill:none;stroke:#FFD018;stroke-miterlimit:10;stroke-dasharray:17.6543;}
	.st46{clip-path:url(#SVGID_36_);fill:none;stroke:#FFD018;stroke-miterlimit:10;stroke-dasharray:17.6543;}
	.st47{clip-path:url(#SVGID_40_);fill:none;stroke:#FFD018;stroke-miterlimit:10;stroke-dasharray:17.6543;}
	.st48{fill:none;stroke:#FFD018;stroke-width:1.086;stroke-miterlimit:10;}
	.st49{fill:none;stroke:#FFD018;stroke-width:1.9735;stroke-miterlimit:10;}
	.st50{fill:#FEFEFE;}
	.st51{fill:none;stroke:#666666;stroke-width:14.6984;stroke-miterlimit:10;}
	.st52{fill:#353535;}
	.st53{fill:#999999;}
	.st54{fill:#C4C4C4;}
</style>
<g>
	<g>
		<path class="st52" d="M1459.38,374.74c103.31,0,187.37-84.05,187.37-187.37C1646.75,84.05,1562.7,0,1459.38,0
			s-187.37,84.05-187.37,187.37c0,31.83,7.47,59.81,25,93.55c17.19,33.11,24.2,59.19,24.2,90.04h7.55
			c0-31.74-7.49-59.71-25.05-93.52c-17.15-33.03-24.15-59.13-24.15-90.07c0-99.15,80.67-179.82,179.82-179.82
			c99.15,0,179.82,80.67,179.82,179.82c0,99.15-80.67,179.82-179.82,179.82c-31.62,0-62.72-8.32-89.92-24.06l-3.78,6.53
			C1394.03,366.06,1426.43,374.74,1459.38,374.74z"/>
		<polygon class="st52" points="1324.98,376.3 1349.28,352 1343.95,346.66 1324.98,365.63 1306.01,346.66 1300.68,352 		"/>
	</g>
	<g>
		<path class="st1" d="M1051.46,215.2c27.21-15.74,58.3-24.06,89.92-24.06c31.62,0,62.72,8.32,89.92,24.06l3.78-6.53
			c-28.35-16.41-60.76-25.08-93.7-25.08c-32.95,0-65.35,8.67-93.7,25.08L1051.46,215.2z"/>
		<path class="st1" d="M1141.39,558.33c84.34,0,158.69-56.77,180.81-138.06l-7.28-1.98c-21.23,78.01-92.58,132.49-173.53,132.49
			c-99.15,0-179.82-80.67-179.82-179.82c0-30.94,7-57.04,24.15-90.07c17.56-33.82,25.05-61.78,25.05-93.52h-7.55
			c0,30.85-7.01,56.94-24.2,90.04c-17.52,33.74-25,61.72-25,93.55C954.02,474.28,1038.07,558.33,1141.39,558.33z"/>
		<polygon class="st1" points="1025.95,211.67 1031.29,206.33 1006.98,182.03 982.68,206.33 988.02,211.67 1006.98,192.7 		"/>
	</g>
	<g>
		<path class="st53" d="M823.39,374.74c32.95,0,65.35-8.67,93.7-25.08l-3.78-6.53c-27.21,15.74-58.3,24.06-89.92,24.06
			c-31.62,0-62.72-8.32-89.92-24.06l-3.78,6.53C758.04,366.06,790.44,374.74,823.39,374.74z"/>
		<path class="st53" d="M685.22,370.96h7.55c0-31.74-7.49-59.71-25.05-93.52c-17.15-33.03-24.15-59.13-24.15-90.07
			c0-99.15,80.67-179.82,179.82-179.82c80.95,0,152.3,54.48,173.53,132.49l7.28-1.98C982.08,56.77,907.73,0,823.39,0
			C720.07,0,636.02,84.05,636.02,187.37c0,31.83,7.47,59.81,24.99,93.55C678.2,314.02,685.22,340.11,685.22,370.96z"/>
		<polygon class="st53" points="688.99,376.3 713.29,352 707.95,346.66 688.99,365.63 670.02,346.66 664.69,352 		"/>
	</g>
	<g>
		<path class="st54" d="M415.44,215.2c27.21-15.74,58.3-24.06,89.92-24.06c31.62,0,62.72,8.32,89.92,24.06l3.78-6.53
			c-28.35-16.41-60.76-25.08-93.7-25.08s-65.35,8.67-93.7,25.08L415.44,215.2z"/>
		<path class="st54" d="M505.36,558.33c84.34,0,158.69-56.77,180.81-138.06l-7.28-1.98c-21.23,78.01-92.58,132.49-173.53,132.49
			c-99.15,0-179.82-80.67-179.82-179.82c0-30.94,7-57.04,24.15-90.07c17.56-33.82,25.05-61.78,25.05-93.52h-7.55
			c0,30.85-7.01,56.94-24.2,90.04C325.47,311.16,318,339.13,318,370.96C318,474.28,402.05,558.33,505.36,558.33z"/>
		<polygon class="st54" points="389.93,211.67 395.26,206.33 370.96,182.03 346.66,206.33 352,211.67 370.96,192.7 		"/>
	</g>
	<path class="st2" d="M187.33,374.64c32.39,0,64.78-8.32,93.69-24.98l-3.77-6.54c-55.51,31.98-124.42,31.96-179.83-0.03
		c-41.6-24.02-71.35-62.79-83.78-109.19C1.21,187.51,7.59,139.05,31.6,97.46c49.58-85.87,159.77-115.4,245.64-65.82
		c41.32,23.86,71,62.35,83.56,108.38l7.28-1.99C355,90.07,324.07,49.96,281.02,25.1C191.54-26.56,76.72,4.21,25.07,93.68
		c-51.66,89.47-20.89,204.29,68.58,255.95C122.52,366.3,154.93,374.64,187.33,374.64z"/>
</g>
</svg>
