<svg id="Layer_1" data-name="Layer 1" xmlns="http://www.w3.org/2000/svg" viewBox="0 0 156.86 119.88"><defs><style>.cls-1{fill:#018285;}</style></defs><title>hitLogo</title><path class="cls-1" d="M0,75.2V36.85c0-4,2.17-6.15,6.07-6.15,2.9,0,5.8,0,8.69,0A5.28,5.28,0,0,1,20.25,36c.07,2.4,0,4.8,0,7.19,0,3.26,1.4,4.7,4.63,4.73q7.86.09,15.73,0c3.4,0,4.63-1.37,4.63-4.78,0-12.19,0-24.37,0-36.56,0-3.43,1.76-6.8,6.5-6.57C54.38.14,57,0,59.67,0c3.84,0,6,2.21,6,6.07,0,2.45,0,4.9,0,7.34,0,23,0,45.94,0,68.91,0,4.56-2.58,7.2-7,6.92-2.43-.15-4.89,0-7.33,0-3.85,0-6.14-2.26-6.16-6.14,0-5.24,0-10.48,0-15.73,0-3-1.45-4.45-4.52-4.46q-7.8,0-15.58,0c-3.51,0-4.88,1.37-4.89,4.91q0,22.69,0,45.39a11,11,0,0,1-.22,2.82,5.26,5.26,0,0,1-5,3.8c-3.14,0-6.29,0-9.44,0A5.41,5.41,0,0,1,0,114.14Q0,95.57,0,77Z"/><path class="cls-1" d="M76.66,75.27c0-12.73.1-25.46-.06-38.19-.06-4.34,3-6.69,6.44-6.43,2.78.21,5.58,0,8.38.05a5.39,5.39,0,0,1,5.49,5.51q0,39.09,0,78.17a5.34,5.34,0,0,1-5.5,5.47q-4.49,0-9,0c-3.6,0-5.74-2.15-5.75-5.79Q76.65,94.67,76.66,75.27Z"/><path class="cls-1" d="M131.93,30.7h19c3.54,0,5.75,2.07,5.85,5.59.08,3,.07,6,0,9-.08,3.51-2.29,5.62-5.79,5.65h-4c-3.25,0-4.8,1.54-4.8,4.75q0,13.71,0,27.42c0,3.9-2.23,6.14-6.1,6.15q-3.88,0-7.79,0c-4.33,0-6.38-2-6.39-6.43V56.31c0-4-1.38-5.38-5.41-5.38-1.35,0-2.7,0-4,0a5.2,5.2,0,0,1-5.15-5.16c-.05-3.3-.05-6.59,0-9.89a5.19,5.19,0,0,1,5.31-5.15C119,30.68,125.48,30.7,131.93,30.7Z"/><path class="cls-1" d="M55.38,119.86c-1.55,0-3.1,0-4.64,0a5.37,5.37,0,0,1-5.46-5.37c-.07-3.14-.07-6.29,0-9.43a5.46,5.46,0,0,1,5.59-5.43q4.64,0,9.28,0a5.22,5.22,0,0,1,5.36,5.1c.12,3.34.12,6.69,0,10a5.16,5.16,0,0,1-5.34,5.11C58.57,119.89,57,119.86,55.38,119.86Z"/><path class="cls-1" d="M86.73,20.34c-1.55,0-3.1,0-4.64,0a5.27,5.27,0,0,1-5.44-5.2q-.15-4.94,0-9.87A5.14,5.14,0,0,1,81.93.1c3.19,0,6.39,0,9.58,0a5.33,5.33,0,0,1,5.37,5.3c.09,3.19.08,6.39,0,9.58a5.46,5.46,0,0,1-5.52,5.35C89.82,20.36,88.27,20.34,86.73,20.34Z"/><path class="cls-1" d="M131.91,119.87c-1.59,0-3.19,0-4.78,0a5.13,5.13,0,0,1-5.22-5.07q-.18-5,0-10a5.23,5.23,0,0,1,5.34-5.14c3.14,0,6.29,0,9.43,0a5.44,5.44,0,0,1,5.46,5.4c.08,3.14.07,6.29,0,9.43a5.39,5.39,0,0,1-5.44,5.4C135.11,119.9,133.51,119.87,131.91,119.87Z"/></svg>