<?xml version="1.0" encoding="utf-8"?>
<!-- Generator: Adobe Illustrator 23.0.6, SVG Export Plug-In . SVG Version: 6.00 Build 0)  -->
<svg version="1.1" id="Layer_1" xmlns="http://www.w3.org/2000/svg" xmlns:xlink="http://www.w3.org/1999/xlink" x="0px" y="0px"
	 viewBox="0 0 505.34 210.65" style="enable-background:new 0 0 505.34 210.65;" xml:space="preserve">
<style type="text/css">
	.st0{fill:#231F20;}
	.st1{fill:#FFFFFF;}
</style>
<g>
	<g>
		<path class="st0" d="M0,142.57V9.26h14.41l47.23,117.26h0.55L109.42,9.26h13.95v133.31h-9.3V41.54c0-7.05,0.36-14.34,1.08-21.88
			h-0.72L64.56,142.57h-5.93L8.94,19.47H8.21c0.49,8.09,0.73,15.81,0.73,23.16v99.93H0z"/>
		<path class="st0" d="M150.83,126.04c-10.58-12.23-15.86-29.02-15.86-50.36s5.33-38.09,16-50.26
			c10.67-12.17,25.29-18.26,43.86-18.26c18.57,0,33.1,6.15,43.58,18.44c10.49,12.29,15.73,29.05,15.73,50.26
			s-5.29,37.94-15.87,50.17s-25.15,18.35-43.72,18.35C175.98,144.39,161.4,138.28,150.83,126.04z M158.03,31.72
			c-8.63,10.35-12.95,25.05-12.95,44.11c0,19.06,4.25,33.82,12.77,44.29c8.51,10.47,20.74,15.71,36.7,15.71s28.19-5.17,36.7-15.52
			c8.51-10.35,12.76-25.16,12.76-44.43c0-19.27-4.24-34.03-12.72-44.29c-8.48-10.26-20.65-15.39-36.52-15.39
			C178.91,16.19,166.66,21.37,158.03,31.72z"/>
		<path class="st0" d="M293.52,126.04c-10.58-12.23-15.86-29.02-15.86-50.36s5.33-38.09,16-50.26
			c10.67-12.17,25.29-18.26,43.86-18.26c18.57,0,33.1,6.15,43.58,18.44c10.49,12.29,15.73,29.05,15.73,50.26
			s-5.29,37.94-15.87,50.17s-25.15,18.35-43.72,18.35C318.67,144.39,304.1,138.28,293.52,126.04z M300.73,31.72
			c-8.63,10.35-12.95,25.05-12.95,44.11c0,19.06,4.25,33.82,12.77,44.29c8.51,10.47,20.74,15.71,36.7,15.71s28.19-5.17,36.7-15.52
			c8.51-10.35,12.76-25.16,12.76-44.43c0-19.27-4.24-34.03-12.72-44.29c-8.48-10.26-20.65-15.39-36.52-15.39
			C321.61,16.19,309.36,21.37,300.73,31.72z"/>
		<path class="st0" d="M406.94,75.46c0-0.42,0-0.88,0-1.37c0-12.81,2.57-24.33,7.7-34.56c5.14-10.23,12.49-18.15,22.07-23.77
			c9.57-5.61,20.41-8.42,32.51-8.42c0.43,0,0.82,0,1.19,0c12.88,0,24.53,2.38,34.92,7.14l-3.74,8.38
			c-9.85-4.87-20.06-7.31-30.64-7.31c-16.72,0-29.88,5.36-39.48,16.07c-9.6,10.72-14.41,25.5-14.41,44.34s4.53,33.53,13.59,44.06
			c9.06,10.53,22,15.8,38.84,15.8c11.06,0,21.34-1.43,30.82-4.29v8.21c-8.82,3.1-19.82,4.65-33.01,4.65
			c-18.72,0-33.46-6.07-44.22-18.21C412.31,114.04,406.94,97.13,406.94,75.46z"/>
		<circle class="st0" cx="194.55" cy="59.66" r="8.1"/>
		<circle class="st0" cx="337.25" cy="59.66" r="8.1"/>
		<g>
			<rect x="246.04" y="54.9" class="st0" width="38.86" height="9.52"/>
		</g>
	</g>
	<g>
		<path class="st0" d="M0.7,193.59v-29.39h3.18l10.41,25.85h0.12l10.41-25.85h3.07v29.39h-2.05v-22.27c0-1.55,0.08-3.16,0.24-4.82
			h-0.16l-10.99,27.1h-1.31L2.67,166.46H2.51c0.11,1.78,0.16,3.48,0.16,5.11v22.03H0.7z"/>
		<path class="st0" d="M38.15,189.95c-2.33-2.7-3.5-6.4-3.5-11.1c0-4.7,1.18-8.4,3.53-11.08c2.35-2.68,5.57-4.03,9.67-4.03
			s7.3,1.36,9.61,4.07c2.31,2.71,3.47,6.4,3.47,11.08c0,4.68-1.17,8.36-3.5,11.06c-2.33,2.7-5.54,4.04-9.64,4.04
			C43.69,194,40.48,192.65,38.15,189.95z M39.74,169.16c-1.9,2.28-2.85,5.52-2.85,9.72c0,4.2,0.94,7.46,2.81,9.76
			c1.88,2.31,4.57,3.46,8.09,3.46c3.52,0,6.21-1.14,8.09-3.42c1.88-2.28,2.81-5.55,2.81-9.79c0-4.25-0.93-7.5-2.8-9.76
			s-4.55-3.39-8.05-3.39S41.64,166.87,39.74,169.16z"/>
		<path class="st0" d="M69.61,189.95c-2.33-2.7-3.5-6.4-3.5-11.1c0-4.7,1.18-8.4,3.53-11.08c2.35-2.68,5.57-4.03,9.67-4.03
			c4.09,0,7.3,1.36,9.61,4.07c2.31,2.71,3.47,6.4,3.47,11.08c0,4.68-1.17,8.36-3.5,11.06c-2.33,2.7-5.54,4.04-9.64,4.04
			C75.15,194,71.94,192.65,69.61,189.95z M71.19,169.16c-1.9,2.28-2.85,5.52-2.85,9.72c0,4.2,0.94,7.46,2.81,9.76
			c1.88,2.31,4.57,3.46,8.09,3.46c3.52,0,6.21-1.14,8.09-3.42c1.88-2.28,2.81-5.55,2.81-9.79c0-4.25-0.94-7.5-2.8-9.76
			c-1.87-2.26-4.55-3.39-8.05-3.39S73.1,166.87,71.19,169.16z"/>
		<path class="st0" d="M97.55,178.8c0-0.09,0-0.19,0-0.3c0-2.82,0.57-5.36,1.7-7.62c1.13-2.26,2.75-4,4.86-5.24
			c2.11-1.24,4.5-1.86,7.17-1.86c0.09,0,0.18,0,0.26,0c2.84,0,5.41,0.52,7.7,1.57l-0.82,1.85c-2.17-1.07-4.42-1.61-6.75-1.61
			c-3.69,0-6.59,1.18-8.7,3.54c-2.12,2.36-3.18,5.62-3.18,9.77c0,4.15,1,7.39,3,9.71c2,2.32,4.85,3.48,8.56,3.48
			c2.44,0,4.7-0.31,6.79-0.94v1.81c-1.94,0.68-4.37,1.02-7.28,1.02c-4.13,0-7.38-1.34-9.75-4.02
			C98.73,187.3,97.55,183.58,97.55,178.8z"/>
		<path class="st0" d="M122.39,183.3v-1.69h9.55v1.69H122.39z"/>
		<path class="st0" d="M134.69,169.47v-7.42h2.05v5.53h14.09v2.25l-3.9,13.56l-1.83,10.2h-2.05l1.8-9.93l4.08-14.19H134.69z"/>
		<path class="st0" d="M166.63,193.59v-25.84c0.11,0,0.72-0.04,1.83-0.11c2.6-0.18,4.66-0.26,6.19-0.26c1.53,0,2.73,0.06,3.6,0.17
			c0.88,0.11,1.73,0.33,2.58,0.66c0.84,0.33,1.54,0.75,2.1,1.28s1,1.23,1.34,2.1c0.34,0.87,0.51,1.9,0.51,3.07v18.93H166.63z
			 M168.68,191.79h14.05v-17.22c0-1.79-0.47-3.13-1.41-4.01c-0.76-0.74-1.98-1.19-3.66-1.36c-0.67-0.08-1.7-0.12-3.08-0.12
			s-3.35,0.1-5.91,0.3V191.79z"/>
		<path class="st0" d="M191.64,183.91v-16.24h2.05v13.95l-1.87,2.29H191.64z"/>
		<path class="st0" d="M199.7,193.59v-1.81h9.17c0.36-1.7,0.54-3.34,0.54-4.92v-13.68c0-1.23-0.27-2.22-0.81-2.98
			c-0.54-0.76-1.37-1.13-2.49-1.13s-2.27,0.1-3.45,0.3v-1.81c1-0.2,2.16-0.3,3.46-0.3c1.74,0,3.07,0.55,3.98,1.64
			c0.91,1.09,1.37,2.52,1.37,4.29v13.71c0,0.91-0.07,1.92-0.2,3.04c-0.13,1.11-0.27,2-0.4,2.65l-0.18,1.01H199.7z"/>
		<path class="st0" d="M216.33,193.27l0-2.16c0.59,0.15,1.43,0.37,2.54,0.65c1.11,0.29,2.15,0.43,3.13,0.43s1.85-0.13,2.61-0.39
			c0.76-0.26,1.4-0.6,1.92-1.03c0.52-0.42,0.97-0.92,1.37-1.5c0.39-0.58,0.7-1.15,0.92-1.73c0.22-0.58,0.4-1.17,0.53-1.79
			c0.24-1.05,0.36-2.02,0.36-2.93v-3.64c0-3.16-0.65-5.64-1.95-7.43c-1.3-1.79-3.3-2.68-6.01-2.68c-1.5,0-3.03,0.27-4.58,0.8
			c-0.48,0.16-0.76,0.25-0.84,0.28v-1.92c0.15-0.07,0.36-0.16,0.63-0.26s0.88-0.25,1.83-0.44c0.95-0.18,2.05-0.27,3.33-0.27
			c1.27,0,2.5,0.23,3.69,0.7c1.19,0.47,2.15,1.08,2.88,1.84c0.74,0.76,1.34,1.67,1.81,2.73c0.84,1.88,1.26,4.09,1.26,6.64v3.64
			c0,1.94-0.32,3.78-0.96,5.51c-0.45,1.21-1.14,2.28-2.06,3.22c-0.99,1.02-2.28,1.73-3.87,2.13c-0.84,0.21-1.76,0.32-2.76,0.32
			c-1,0-1.97-0.06-2.94-0.18c-0.96-0.12-1.68-0.24-2.15-0.37L216.33,193.27z"/>
		<path class="st0" d="M234.7,193.41v-1.69c0.39,0.04,0.84,0.06,1.35,0.06c1.03,0,1.84-0.36,2.42-1.08
			c0.58-0.72,0.87-1.82,0.87-3.31v-18.09l-2.93,0.2v-1.81c3.91-0.33,6.77-0.5,8.57-0.5s3.14,0.06,4.02,0.17
			c0.88,0.11,1.74,0.34,2.58,0.66c0.84,0.33,1.54,0.76,2.1,1.29c0.56,0.53,1.01,1.24,1.35,2.12c0.34,0.88,0.51,1.91,0.51,3.09v19.06
			h-2.05v-19.02c0-1.8-0.47-3.14-1.41-4.02c-0.78-0.74-2-1.19-3.68-1.37c-0.67-0.08-1.56-0.12-2.67-0.12s-2.56,0.05-4.34,0.14v18.19
			c0,4.13-1.78,6.19-5.35,6.19C235.75,193.59,235.3,193.53,234.7,193.41z"/>
		<path class="st0" d="M273.31,193.59v-25.84c0.11,0,0.72-0.04,1.83-0.11c2.6-0.18,4.66-0.26,6.19-0.26c1.53,0,2.73,0.06,3.61,0.17
			c0.88,0.11,1.73,0.33,2.58,0.66c0.84,0.33,1.54,0.75,2.1,1.28c0.56,0.53,1,1.23,1.34,2.1c0.34,0.87,0.51,1.9,0.51,3.07v18.93
			h-2.05v-19.02c0-1.8-0.47-3.14-1.41-4.02c-0.76-0.74-1.98-1.19-3.66-1.37c-0.67-0.08-1.7-0.12-3.08-0.12
			c-1.38,0-3.35,0.1-5.91,0.3v24.22H273.31z"/>
		<path class="st0" d="M298.56,193.59v-25.93h2.05v25.93H298.56z"/>
		<path class="st0" d="M304.77,193.41v-1.69c0.39,0.04,0.84,0.06,1.35,0.06c1.03,0,1.84-0.36,2.42-1.08
			c0.58-0.72,0.87-1.82,0.87-3.31v-18.09l-2.93,0.2v-1.81c3.91-0.33,6.77-0.5,8.57-0.5s3.14,0.06,4.02,0.17
			c0.88,0.11,1.74,0.34,2.58,0.66c0.84,0.33,1.54,0.76,2.1,1.29c0.56,0.53,1.01,1.24,1.35,2.12c0.34,0.88,0.51,1.91,0.51,3.09v19.06
			h-2.05v-19.02c0-1.8-0.47-3.14-1.41-4.02c-0.78-0.74-2-1.19-3.68-1.37c-0.67-0.08-1.56-0.12-2.67-0.12s-2.56,0.05-4.34,0.14v18.19
			c0,4.13-1.78,6.19-5.35,6.19C305.82,193.59,305.37,193.53,304.77,193.41z"/>
		<path class="st0" d="M332.45,183.91v-16.24h2.05v13.95l-1.87,2.29H332.45z"/>
		<path class="st0" d="M340.31,176.34c0-1.46,0.27-2.78,0.82-3.96c0.55-1.18,1.26-2.13,2.15-2.86c1.85-1.5,3.97-2.25,6.36-2.25
			c3.07,0,5.46,1.09,7.15,3.28s2.55,5.55,2.55,10.09c0,4.54-0.85,7.9-2.55,10.09c-1.7,2.19-4.08,3.28-7.15,3.28
			c-2.32,0-4.25-0.1-5.78-0.3l-0.76-0.1v-1.81c2.21,0.27,4.39,0.4,6.52,0.4c1.17,0,2.2-0.19,3.09-0.58
			c0.89-0.39,1.62-0.91,2.18-1.57c0.56-0.66,1.02-1.49,1.37-2.49c0.35-1,0.59-2.05,0.73-3.16c0.14-1.11,0.21-2.36,0.21-3.74
			s-0.07-2.63-0.21-3.73c-0.14-1.11-0.39-2.16-0.73-3.16c-0.35-1-0.81-1.84-1.37-2.51c-0.56-0.67-1.29-1.2-2.18-1.59
			c-0.89-0.39-1.9-0.58-3.03-0.58c-1.13,0-2.14,0.16-3.03,0.47c-0.89,0.32-1.62,0.73-2.18,1.23c-0.56,0.5-1.03,1.08-1.41,1.72
			c-0.71,1.21-1.07,2.49-1.07,3.84c0,2,0.53,3.64,1.59,4.91c1.06,1.27,2.44,1.91,4.15,1.91h0.28l-0.32,1.57h-0.1
			c-2.11,0-3.85-0.78-5.22-2.34C340.99,180.83,340.31,178.81,340.31,176.34z"/>
		<path class="st0" d="M362.74,169.47v-7.42h2.05v5.53h14.09v2.25l-3.9,13.56l-1.83,10.2h-2.05l1.8-9.93l4.08-14.19H362.74z"/>
		<path class="st0" d="M391.81,170.16v-1.92c0.54-0.24,1.32-0.47,2.35-0.67c1.03-0.2,2.18-0.3,3.45-0.3s2.49,0.23,3.68,0.7
			c1.19,0.47,2.15,1.08,2.88,1.84c0.74,0.76,1.34,1.67,1.81,2.73c0.84,1.88,1.26,4.09,1.26,6.64v24.32h-2.05v-24.3
			c0-3.16-0.65-5.64-1.95-7.43c-1.3-1.79-3.3-2.68-6.01-2.68c-1.29,0-2.42,0.14-3.4,0.42c-0.33,0.09-0.73,0.22-1.2,0.38
			C392.18,170.04,391.9,170.13,391.81,170.16z"/>
		<path class="st0" d="M414.1,183.91v-16.24h2.05v13.95l-1.87,2.29H414.1z"/>
		<path class="st0" d="M420.47,169.29v-1.91c2.25-0.14,4.11-0.21,5.59-0.21c1.47,0,2.65,0.06,3.53,0.17
			c0.88,0.11,1.74,0.34,2.58,0.67c0.84,0.33,1.54,0.76,2.1,1.29c0.56,0.53,1.01,1.24,1.35,2.12c0.34,0.88,0.51,1.91,0.51,3.1v19.08
			h-2.05v-19.02c0-1.8-0.47-3.14-1.41-4.02c-0.78-0.74-2-1.19-3.68-1.37c-0.67-0.08-1.45-0.12-2.33-0.12c-1.5,0-3.26,0.05-5.29,0.16
			L420.47,169.29z"/>
		<path class="st0" d="M440.43,169.43v-1.81h18.17v1.59c-0.47,0.17-0.88,0.35-1.24,0.51c-0.36,0.17-0.74,0.41-1.15,0.71
			c-0.41,0.31-0.75,0.66-1.02,1.05c-0.6,0.91-0.9,2.06-0.9,3.46v18.65h-2.05v-18.65c0-0.79,0.1-1.52,0.29-2.19
			c0.19-0.67,0.43-1.2,0.71-1.59c0.58-0.8,1.09-1.33,1.55-1.57l0.28-0.16H440.43z"/>
		<path class="st0" d="M461.36,193.59l1.93-20.2c0.05-0.95-0.01-1.75-0.18-2.39c-0.05-0.21-0.09-0.38-0.12-0.5
			c-0.03-0.12-0.08-0.3-0.17-0.54c-0.09-0.24-0.14-0.4-0.17-0.48c-0.05-0.19-0.18-0.53-0.38-1.03l-0.34-0.9h2.19
			c0.5,1.15,0.82,2.1,0.99,2.83h0.26c0.17-0.27,0.51-0.61,1.01-1.01c0.5-0.41,1.02-0.75,1.54-1.01c0.52-0.27,1.22-0.52,2.09-0.74
			c0.87-0.23,1.79-0.34,2.75-0.34c2.41,0,4.24,0.76,5.49,2.29c1.26,1.53,1.88,3.61,1.88,6.23v17.81h-7.74v-1.81h5.69v-16.01
			c0-2.06-0.49-3.69-1.46-4.9c-0.97-1.2-2.26-1.81-3.87-1.81c-1.11,0-2.12,0.13-3.04,0.4c-0.91,0.27-1.63,0.59-2.14,0.97
			c-0.52,0.38-0.95,0.76-1.31,1.15c-0.36,0.38-0.59,0.71-0.71,0.97l-0.2,0.4l-1.95,20.62H461.36z"/>
		<path class="st0" d="M487.19,169.59v-1.81c3.91-0.27,6.61-0.4,8.09-0.4c1.48,0,2.66,0.06,3.53,0.17c0.88,0.11,1.73,0.33,2.58,0.66
			c0.84,0.33,1.54,0.75,2.1,1.28c0.56,0.53,1,1.23,1.34,2.1c0.34,0.87,0.51,1.9,0.51,3.07v18.93h-2.05v-19.02
			c0-1.8-0.47-3.14-1.41-4.02c-0.76-0.74-1.98-1.19-3.66-1.37c-0.67-0.08-1.71-0.12-3.11-0.12
			C493.72,169.07,491.07,169.25,487.19,169.59z M487.19,193.59v-16.29h2.05v16.29H487.19z"/>
	</g>
</g>
</svg>
